<?xml version="1.0" encoding="UTF-8" standalone="no"?>
<svg
   xmlns="http://www.w3.org/2000/svg"
   xmlns:svg="http://www.w3.org/2000/svg"
   xmlns:oryx="http://www.b3mn.org/oryx"
   xmlns:xlink="http://www.w3.org/1999/xlink"
   width="100"
   height="80"
   version="1.0">
  <defs></defs>
  <oryx:magnets>
  	<oryx:magnet oryx:cx="1" oryx:cy="20" oryx:anchors="left" />
  	<oryx:magnet oryx:cx="1" oryx:cy="40" oryx:anchors="left" />
  	<oryx:magnet oryx:cx="1" oryx:cy="60" oryx:anchors="left" />
  	
  	<oryx:magnet oryx:cx="25" oryx:cy="79" oryx:anchors="bottom" />
  	<oryx:magnet oryx:cx="50" oryx:cy="79" oryx:anchors="bottom" />
  	<oryx:magnet oryx:cx="75" oryx:cy="79" oryx:anchors="bottom" />
  	
  	<oryx:magnet oryx:cx="99" oryx:cy="20" oryx:anchors="right" />
  	<oryx:magnet oryx:cx="99" oryx:cy="40" oryx:anchors="right" />
  	<oryx:magnet oryx:cx="99" oryx:cy="60" oryx:anchors="right" />
  	
  	<oryx:magnet oryx:cx="25" oryx:cy="1" oryx:anchors="top" />
  	<oryx:magnet oryx:cx="50" oryx:cy="1" oryx:anchors="top" />
  	<oryx:magnet oryx:cx="75" oryx:cy="1" oryx:anchors="top" />
  	
  	<oryx:magnet oryx:cx="50" oryx:cy="40" oryx:default="yes" />
  </oryx:magnets>
  <g pointer-events="fill" oryx:minimumSize="80 60">
  	<defs>
		<radialGradient id="background" cx="10%" cy="10%" r="100%" fx="10%" fy="10%">
			<stop offset="0%" stop-color="#ffffff" stop-opacity="1"/>
			<stop id="fill_el" offset="100%" stop-color="#ffffcc" stop-opacity="1"/>
		</radialGradient>
	</defs>
	
	<rect id="text_frame" oryx:anchors="bottom top right left" x="1" y="1" width="94" height="79" rx="10" ry="10" stroke="none" stroke-width="0" fill="none" />
	<rect id="bg_frame" oryx:anchors="bottom top right left" x="0" y="0" width="100" height="80" rx="10" ry="10" stroke="black" stroke-width="1" fill="url(#background) #ffffcc" />
    <rect id="callActivity" oryx:resize="vertical horizontal" oryx:anchors="bottom top right left" x="0" y="0" width="100" height="80" rx="10" ry="10" stroke="black" stroke-width="4" fill="none" />
	<rect id="border" oryx:anchors="top bottom left right" oryx:resize="vertical horizontal" x="2.5" y="2.5" width="95" height="75" rx="8" ry="8" stroke="black" stroke-width="1" fill="none" />
    	<text 
			font-size="12"
			id="text_name" 
			x="50" 
			y="40" 
			oryx:align="middle center"
			oryx:fittoelem="text_frame"
			stroke="black">
		</text>
    	
 	<a id="u" target="_blank">
	 	<g id="b" 
			oryx:anchors="bottom">
			
		 	<rect oryx:anchors="bottom" x="44" y="66" width="14" height="14" fill="none" stroke="black" stroke-width="1" />
			<path oryx:anchors="bottom" fill="none" stroke="black" d="M51 68 v10 M 46 73 h10" stroke-width="1"/>
		
		</g>
	</a>
	<g id="none"></g>
	<g id="loop">
		<path
	         oryx:anchors="bottom"
	       	style="opacity:1;fill:none;fill-opacity:1;stroke:#000000;stroke-width:1.5;stroke-linecap:round;stroke-linejoin:round;stroke-miterlimit:2.0999999;stroke-dasharray:none;stroke-opacity:1"
	         id="path2396"
	         d="M 50.5,72 L 50.5,75 L 47.5,75 M 50.5,75 A 4.875,4.875 0 1 1 54.5,75"
			transform="translate(-15.5,0)"
	         />
	</g>
	

	<g id="parallel">
		<path oryx:anchors="bottom" fill="none" stroke="black" d="M47 65 v10 M51 65 v10 M55 65 v10" stroke-width="2" transform="translate(-15 0)" />
	</g>
	<g id="sequential">
		<path oryx:anchors="bottom" fill="none" stroke="#000000" stroke-width="2" d="M42,66H32 M42,70H32 M42,74H32"/>
	</g>
	
	
	<g id="adhoc">
		<text 
			oryx:anchors="bottom"
			x="61"
			y="77"
			font-size="20"
			transform="translate(14,0)"
		>~</text>
	</g>
	<g id="compensation">
		<path oryx:anchors="bottom" fill="none" stroke="black" d="M 51 70 L 56 65 L 56 75z M45.7 70 L50.7 75 L 50.7 65z" stroke-width="1"
		transform="translate(-28,0)" />
	</g>
  </g>
</svg>